<mxfile host="app.diagrams.net" agent="Mozilla/5.0 (Windows NT 10.0; Win64; x64) AppleWebKit/537.36 (KHTML, like Gecko) Chrome/131.0.0.0 Safari/537.36 Edg/131.0.0.0" version="26.0.5">
  <diagram name="Page-1" id="zKecgzgq-LBh0_Sx15Lt">
    <mxGraphModel dx="1042" dy="565" grid="1" gridSize="10" guides="1" tooltips="1" connect="1" arrows="1" fold="1" page="1" pageScale="1" pageWidth="850" pageHeight="1100" math="0" shadow="0">
      <root>
        <mxCell id="0" />
        <mxCell id="1" parent="0" />
        <mxCell id="ryUKknDVjnrSKd4kZtze-2" style="rounded=0;orthogonalLoop=1;jettySize=auto;html=1;exitX=0.5;exitY=0.5;exitDx=0;exitDy=0;exitPerimeter=0;" edge="1" parent="1" source="ryUKknDVjnrSKd4kZtze-3" target="ryUKknDVjnrSKd4kZtze-4">
          <mxGeometry relative="1" as="geometry" />
        </mxCell>
        <mxCell id="ryUKknDVjnrSKd4kZtze-3" value="Khách hàng" style="shape=umlActor;html=1;verticalLabelPosition=top;verticalAlign=bottom;align=center;labelPosition=center;" vertex="1" parent="1">
          <mxGeometry x="280" y="335" width="30" height="60" as="geometry" />
        </mxCell>
        <mxCell id="ryUKknDVjnrSKd4kZtze-4" value="Thêm vào giỏ hàng" style="ellipse;whiteSpace=wrap;html=1;" vertex="1" parent="1">
          <mxGeometry x="400" y="335" width="140" height="70" as="geometry" />
        </mxCell>
        <mxCell id="ryUKknDVjnrSKd4kZtze-8" value="Chọn sản phẩm" style="ellipse;whiteSpace=wrap;html=1;" vertex="1" parent="1">
          <mxGeometry x="580" y="200" width="140" height="70" as="geometry" />
        </mxCell>
        <mxCell id="ryUKknDVjnrSKd4kZtze-9" value="Chọn số lượng" style="ellipse;whiteSpace=wrap;html=1;" vertex="1" parent="1">
          <mxGeometry x="620" y="335" width="140" height="70" as="geometry" />
        </mxCell>
        <mxCell id="ryUKknDVjnrSKd4kZtze-11" value="&amp;lt;&amp;lt;include&amp;gt;&amp;gt;" style="edgeStyle=none;html=1;endArrow=open;verticalAlign=bottom;dashed=1;labelBackgroundColor=none;rounded=0;exitX=1;exitY=0.5;exitDx=0;exitDy=0;entryX=0;entryY=0.5;entryDx=0;entryDy=0;" edge="1" parent="1" source="ryUKknDVjnrSKd4kZtze-4" target="ryUKknDVjnrSKd4kZtze-9">
          <mxGeometry width="160" relative="1" as="geometry">
            <mxPoint x="340" y="310" as="sourcePoint" />
            <mxPoint x="500" y="310" as="targetPoint" />
          </mxGeometry>
        </mxCell>
        <mxCell id="ryUKknDVjnrSKd4kZtze-12" value="&amp;lt;&amp;lt;include&amp;gt;&amp;gt;" style="edgeStyle=none;html=1;endArrow=open;verticalAlign=bottom;dashed=1;labelBackgroundColor=none;rounded=0;exitX=1;exitY=0.5;exitDx=0;exitDy=0;entryX=0;entryY=1;entryDx=0;entryDy=0;" edge="1" parent="1" source="ryUKknDVjnrSKd4kZtze-4" target="ryUKknDVjnrSKd4kZtze-8">
          <mxGeometry width="160" relative="1" as="geometry">
            <mxPoint x="550" y="380" as="sourcePoint" />
            <mxPoint x="600" y="305" as="targetPoint" />
          </mxGeometry>
        </mxCell>
        <mxCell id="ryUKknDVjnrSKd4kZtze-13" value="Xem giỏ hàng" style="ellipse;whiteSpace=wrap;html=1;" vertex="1" parent="1">
          <mxGeometry x="580" y="450" width="140" height="70" as="geometry" />
        </mxCell>
        <mxCell id="ryUKknDVjnrSKd4kZtze-14" style="rounded=0;orthogonalLoop=1;jettySize=auto;html=1;exitX=0.5;exitY=0.5;exitDx=0;exitDy=0;exitPerimeter=0;entryX=0;entryY=0.5;entryDx=0;entryDy=0;" edge="1" parent="1" source="ryUKknDVjnrSKd4kZtze-3" target="ryUKknDVjnrSKd4kZtze-13">
          <mxGeometry relative="1" as="geometry">
            <mxPoint x="305" y="375" as="sourcePoint" />
            <mxPoint x="410" y="378" as="targetPoint" />
          </mxGeometry>
        </mxCell>
        <mxCell id="ryUKknDVjnrSKd4kZtze-15" value="&amp;lt;&amp;lt;include&amp;gt;&amp;gt;" style="edgeStyle=none;html=1;endArrow=open;verticalAlign=bottom;dashed=1;labelBackgroundColor=none;rounded=0;exitX=1;exitY=0.5;exitDx=0;exitDy=0;entryX=0;entryY=0.5;entryDx=0;entryDy=0;" edge="1" parent="1" source="ryUKknDVjnrSKd4kZtze-4" target="ryUKknDVjnrSKd4kZtze-13">
          <mxGeometry width="160" relative="1" as="geometry">
            <mxPoint x="550" y="380" as="sourcePoint" />
            <mxPoint x="650" y="315" as="targetPoint" />
          </mxGeometry>
        </mxCell>
        <mxCell id="ryUKknDVjnrSKd4kZtze-16" value="Xóa sản phẩm&lt;span style=&quot;color: rgba(0, 0, 0, 0); font-family: monospace; font-size: 0px; text-align: start; text-wrap-mode: nowrap;&quot;&gt;%3CmxGraphModel%3E%3Croot%3E%3CmxCell%20id%3D%220%22%2F%3E%3CmxCell%20id%3D%221%22%20parent%3D%220%22%2F%3E%3CmxCell%20id%3D%222%22%20value%3D%22%26amp%3Blt%3B%26amp%3Blt%3Binclude%26amp%3Bgt%3B%26amp%3Bgt%3B%22%20style%3D%22edgeStyle%3Dnone%3Bhtml%3D1%3BendArrow%3Dopen%3BverticalAlign%3Dbottom%3Bdashed%3D1%3BlabelBackgroundColor%3Dnone%3Brounded%3D0%3BexitX%3D1%3BexitY%3D0.5%3BexitDx%3D0%3BexitDy%3D0%3BentryX%3D0%3BentryY%3D0.5%3BentryDx%3D0%3BentryDy%3D0%3B%22%20edge%3D%221%22%20parent%3D%221%22%3E%3CmxGeometry%20width%3D%22160%22%20relative%3D%221%22%20as%3D%22geometry%22%3E%3CmxPoint%20x%3D%22540%22%20y%3D%22370%22%20as%3D%22sourcePoint%22%2F%3E%3CmxPoint%20x%3D%22580%22%20y%3D%22485%22%20as%3D%22targetPoint%22%2F%3E%3C%2FmxGeometry%3E%3C%2FmxCell%3E%3C%2Froot%3E%3C%2FmxGraphModel%3E&lt;/span&gt;" style="ellipse;whiteSpace=wrap;html=1;" vertex="1" parent="1">
          <mxGeometry x="800" y="390" width="140" height="70" as="geometry" />
        </mxCell>
        <mxCell id="ryUKknDVjnrSKd4kZtze-18" value="Cập nhật giỏ hàng" style="ellipse;whiteSpace=wrap;html=1;" vertex="1" parent="1">
          <mxGeometry x="800" y="500" width="140" height="70" as="geometry" />
        </mxCell>
        <mxCell id="ryUKknDVjnrSKd4kZtze-19" value="&amp;lt;&amp;lt;extend&amp;gt;&amp;gt;" style="edgeStyle=none;html=1;startArrow=open;endArrow=none;startSize=12;verticalAlign=bottom;dashed=1;labelBackgroundColor=none;rounded=0;exitX=0;exitY=0.5;exitDx=0;exitDy=0;entryX=1;entryY=0.5;entryDx=0;entryDy=0;" edge="1" parent="1" source="ryUKknDVjnrSKd4kZtze-16" target="ryUKknDVjnrSKd4kZtze-13">
          <mxGeometry x="0.1" y="-10" width="160" relative="1" as="geometry">
            <mxPoint x="620" y="310" as="sourcePoint" />
            <mxPoint x="780" y="310" as="targetPoint" />
            <mxPoint as="offset" />
          </mxGeometry>
        </mxCell>
        <mxCell id="ryUKknDVjnrSKd4kZtze-20" value="&amp;lt;&amp;lt;extend&amp;gt;&amp;gt;" style="edgeStyle=none;html=1;startArrow=open;endArrow=none;startSize=12;verticalAlign=bottom;dashed=1;labelBackgroundColor=none;rounded=0;exitX=0;exitY=0.5;exitDx=0;exitDy=0;entryX=1;entryY=0.5;entryDx=0;entryDy=0;" edge="1" parent="1" source="ryUKknDVjnrSKd4kZtze-18" target="ryUKknDVjnrSKd4kZtze-13">
          <mxGeometry x="0.1348" y="28" width="160" relative="1" as="geometry">
            <mxPoint x="810" y="435" as="sourcePoint" />
            <mxPoint x="730" y="495" as="targetPoint" />
            <mxPoint x="1" as="offset" />
          </mxGeometry>
        </mxCell>
      </root>
    </mxGraphModel>
  </diagram>
</mxfile>
